<svg version="1.1" id="Layer_1" xmlns="http://www.w3.org/2000/svg" xmlns:xlink="http://www.w3.org/1999/xlink" x="0px" y="0px"
	 width="100%" viewBox="0 0 500 500" enable-background="new 0 0 500 500" xml:space="preserve">
<path fill="#FFC806" opacity="1.000000" stroke="none" 
	d="
M278.000000,501.000000 
	C185.333359,501.000000 93.166710,501.000000 1.000049,501.000000 
	C1.000033,334.333405 1.000033,167.666794 1.000016,1.000139 
	C167.666565,1.000093 334.333130,1.000093 500.999756,1.000046 
	C500.999847,167.666519 500.999847,334.333038 500.999939,500.999786 
	C426.833344,501.000000 352.666656,501.000000 278.000000,501.000000 
M326.523254,431.957428 
	C344.103241,424.940582 360.347626,415.579010 375.212524,403.882111 
	C457.948792,338.778290 472.281555,226.436676 419.899811,145.687149 
	C377.453827,80.254242 315.631165,50.425766 238.042267,55.483162 
	C194.342667,58.331585 155.912018,75.769714 123.623077,105.607536 
	C76.549210,149.107925 55.259491,203.219467 60.456615,266.949341 
	C64.719925,319.228302 86.991936,363.491913 127.081314,397.348450 
	C186.204941,447.279907 253.057678,457.588470 326.523254,431.957428 
z"/>
<path fill="#050400" opacity="1.000000" stroke="none" 
	d="
M326.153381,432.073944 
	C253.057678,457.588470 186.204941,447.279907 127.081314,397.348450 
	C86.991936,363.491913 64.719925,319.228302 60.456615,266.949341 
	C55.259491,203.219467 76.549210,149.107925 123.623077,105.607536 
	C155.912018,75.769714 194.342667,58.331585 238.042267,55.483162 
	C315.631165,50.425766 377.453827,80.254242 419.899811,145.687149 
	C472.281555,226.436676 457.948792,338.778290 375.212524,403.882111 
	C360.347626,415.579010 344.103241,424.940582 326.153381,432.073944 
M75.953400,289.436432 
	C95.935745,366.668854 144.792297,414.412750 222.939804,430.315948 
	C267.958221,439.477264 310.928833,430.614044 350.111237,406.757721 
	C415.932526,366.682129 448.661438,292.793335 435.183960,217.053802 
	C418.737732,124.630905 331.205200,53.735645 228.383942,68.508446 
	C175.432281,76.116257 133.278320,102.900307 103.117081,147.082397 
	C73.766609,190.076767 65.377350,237.663452 75.953400,289.436432 
z"/>
<path fill="#FEC706" opacity="1.000000" stroke="none" 
	d="
M75.873032,289.023010 
	C65.377350,237.663452 73.766609,190.076767 103.117081,147.082397 
	C133.278320,102.900307 175.432281,76.116257 228.383942,68.508446 
	C331.205200,53.735645 418.737732,124.630905 435.183960,217.053802 
	C448.661438,292.793335 415.932526,366.682129 350.111237,406.757721 
	C310.928833,430.614044 267.958221,439.477264 222.939804,430.315948 
	C144.792297,414.412750 95.935745,366.668854 75.873032,289.023010 
M97.970024,279.040955 
	C97.970078,296.536285 97.947540,314.031677 97.982239,331.526947 
	C97.994659,337.791321 98.740265,338.503693 104.818077,338.533051 
	C109.483459,338.555573 114.150070,338.601929 118.814331,338.526215 
	C133.269867,338.291565 132.884750,341.235657 132.816879,324.682678 
	C132.777496,315.073853 132.809723,305.464783 132.809723,295.951599 
	C142.339600,295.951599 151.222733,295.951599 160.379837,295.951599 
	C160.379837,298.010315 160.379807,299.660553 160.379852,301.310791 
	C160.380112,310.975037 160.359039,320.639313 160.387634,330.303467 
	C160.409409,337.662933 161.312210,338.523499 168.823914,338.535736 
	C175.322250,338.546356 181.821182,338.589203 188.318817,338.521332 
	C194.056259,338.461395 195.091980,337.448761 195.120071,331.817505 
	C195.172455,321.320404 195.136856,310.822876 195.137436,300.325531 
	C195.137833,293.039490 195.137512,285.753418 195.137512,278.289429 
	C211.832901,278.289429 228.051712,278.289429 244.687286,278.289429 
	C244.687286,280.203339 244.687271,281.835815 244.687302,283.468323 
	C244.687546,299.630920 244.658981,315.793579 244.703064,331.956055 
	C244.719345,337.925964 245.332001,338.491913 251.338058,338.527283 
	C258.336060,338.568542 265.334564,338.560730 272.332672,338.529877 
	C278.663361,338.501984 279.265045,337.948975 279.288208,331.729248 
	C279.333557,319.565826 279.301910,307.402130 279.302063,295.238525 
	C279.302155,289.621643 279.302094,284.004761 279.302094,278.231995 
	C309.433014,278.231995 339.008209,278.231995 368.818268,278.231995 
	C368.818268,284.409454 369.336426,290.418854 368.704041,296.304626 
	C367.590485,306.669067 359.910797,311.888702 349.935242,309.138947 
	C346.225403,308.116333 342.622650,306.059631 339.480713,303.773895 
	C334.761902,300.341064 333.451477,300.201599 329.670532,304.856842 
	C326.836121,308.346710 324.086731,311.905884 321.313873,315.445435 
	C317.161530,320.745880 317.178650,322.675171 321.744507,327.485413 
	C332.579010,338.899811 346.249146,341.990631 361.387756,341.133728 
	C382.410706,339.943817 400.868958,322.962921 402.968597,302.074951 
	C403.765625,294.145660 403.509094,286.110413 404.669128,277.971344 
	C407.405304,277.971344 410.141449,277.971344 412.795074,277.971344 
	C412.795074,259.604797 412.795074,242.074448 412.795074,223.876495 
	C409.606232,223.876495 406.668488,223.876495 403.734009,222.953918 
	C403.734589,215.623657 403.735809,208.293396 403.735657,200.963135 
	C403.735382,189.134506 403.796814,177.305389 403.707733,165.477432 
	C403.661194,159.294785 402.436096,158.177429 396.415466,158.164154 
	C389.584869,158.149094 382.754211,158.146942 375.923615,158.164795 
	C369.924957,158.180481 369.014496,159.068512 369.007202,165.108795 
	C368.985657,182.935013 368.999695,200.761292 368.999786,218.587540 
	C368.999817,220.338776 368.999786,222.090012 368.999786,223.644485 
	C338.731384,223.644485 309.170746,223.644485 279.536926,223.644485 
	C279.536926,212.359451 279.536926,201.429840 279.536926,190.001541 
	C286.879791,190.001541 294.001160,189.835541 301.109833,190.064301 
	C305.320038,190.199783 307.351654,188.697189 307.300323,184.380936 
	C307.219147,177.551361 307.255981,170.719955 307.293671,163.889603 
	C307.314819,160.052505 305.810486,158.102646 301.642975,158.116913 
	C275.153809,158.207535 248.664108,158.193542 222.174789,158.129547 
	C218.342148,158.120285 216.690720,159.828613 216.707047,163.537354 
	C216.737854,170.534210 216.752411,177.531601 216.698853,184.528214 
	C216.668365,188.509964 218.416077,190.178131 222.500626,190.060196 
	C229.761917,189.850540 237.033600,190.001328 244.336441,190.001328 
	C244.336441,201.658096 244.336441,212.714371 244.336441,223.998428 
	C235.829315,223.998428 227.673660,223.998428 219.518005,223.998428 
	C211.441132,223.998428 203.364258,223.998428 195.135635,223.998428 
	C195.135635,216.878326 194.883408,210.545273 195.179672,204.237976 
	C196.403122,178.191025 176.453781,160.069916 155.129333,156.249893 
	C128.874390,151.546631 102.322578,168.923355 98.532745,194.443237 
	C97.103020,204.070724 98.089821,214.057053 97.075859,224.032806 
	C94.487717,224.032806 91.899567,224.032806 89.275909,224.032806 
	C89.275909,242.331070 89.275909,259.974243 89.275909,278.120209 
	C92.394112,278.120209 95.183884,278.120209 97.970024,279.040955 
z"/>
<path fill="#FEFEFE" opacity="1.000000" stroke="none" 
	d="
M403.730743,223.876495 
	C406.668488,223.876495 409.606232,223.876495 412.795074,223.876495 
	C412.795074,242.074448 412.795074,259.604797 412.795074,277.971344 
	C410.141449,277.971344 407.405304,277.971344 403.755737,277.977539 
	C382.007385,277.322144 361.174530,276.182434 340.337036,276.090118 
	C281.540680,275.829559 222.741501,275.810883 163.945374,276.096283 
	C141.952042,276.203003 119.964073,277.413147 97.973656,278.120209 
	C95.183884,278.120209 92.394112,278.120209 89.275909,278.120209 
	C89.275909,259.974243 89.275909,242.331070 89.275909,224.032806 
	C91.899567,224.032806 94.487717,224.032806 97.989792,224.043533 
	C114.401009,224.702927 129.896637,225.860641 145.395874,225.911438 
	C209.846237,226.122650 274.298431,226.174683 338.748352,225.902710 
	C360.411621,225.811295 382.070068,224.584396 403.730743,223.876495 
M319.959900,249.456146 
	C320.152039,251.082474 319.851898,253.056549 320.682281,254.232071 
	C321.432068,255.293503 324.482300,256.226501 324.686798,255.934387 
	C326.042084,253.998093 327.534943,251.781769 327.767792,249.530899 
	C328.062561,246.681641 329.264984,242.738373 324.826904,241.685440 
	C323.582275,241.390137 321.307404,242.256042 320.685608,243.295517 
	C319.846222,244.698654 320.147858,246.784378 319.959900,249.456146 
M380.925049,253.494522 
	C381.156403,253.280884 381.570923,252.863220 381.592804,252.882843 
	C382.691986,253.869675 383.757660,254.893890 384.826935,255.914032 
	C385.167297,253.928467 385.605255,251.953171 385.815613,249.953918 
	C385.970215,248.484406 386.325562,246.710556 385.696899,245.561874 
	C384.798676,243.920670 383.083008,242.726822 381.716461,241.341919 
	C380.446747,242.771881 378.352783,244.060867 378.079102,245.661179 
	C377.510559,248.985535 377.907349,252.474976 377.907349,255.896561 
	C378.668427,256.490540 379.429504,257.084534 380.190582,257.678497 
	C380.407593,256.576233 380.624634,255.473953 380.925049,253.494522 
M118.072990,245.195999 
	C118.065506,248.184982 117.992950,251.176392 118.104004,254.160965 
	C118.126945,254.777390 118.833534,255.368378 119.225029,255.971100 
	C119.808243,255.573685 120.520447,255.279083 120.940727,254.751785 
	C121.423080,254.146637 121.646690,253.335251 121.886726,252.819611 
	C123.071869,254.161789 124.018921,255.234329 124.965981,256.306885 
	C126.010262,252.603958 126.316628,249.430756 125.887604,246.360306 
	C125.655373,244.698318 124.302795,242.048721 123.215614,241.923203 
	C121.653229,241.742798 119.871948,243.458145 118.072990,245.195999 
M340.271881,243.095947 
	C340.115875,246.228210 339.558014,249.416840 339.985748,252.467255 
	C340.178558,253.842331 342.334167,255.894531 343.603027,255.897293 
	C344.859680,255.900009 346.423615,253.885147 347.273590,252.419418 
	C347.836884,251.448029 347.380341,249.885269 347.380341,248.304596 
	C345.637878,248.155609 344.249146,248.036865 342.534912,247.890289 
	C342.817566,246.468262 343.047913,245.309509 343.317963,243.950958 
	C344.552490,245.061035 345.422607,245.843430 346.534729,246.843460 
	C347.193390,241.578094 345.641846,240.581711 340.271881,243.095947 
M237.972366,250.336029 
	C239.767090,242.670456 238.471848,241.069275 231.191956,242.123383 
	C231.191956,246.689331 231.191956,251.271011 231.191956,255.852676 
	C231.647568,256.003113 232.103195,256.153564 232.558807,256.304016 
	C233.249283,254.554733 233.939758,252.805435 234.961716,250.216293 
	C235.622147,252.738358 236.048996,254.368454 236.475845,255.998550 
	C237.044128,256.015869 237.612396,256.033203 238.180664,256.050507 
	C238.203720,254.405731 238.226761,252.760971 237.972366,250.336029 
M266.383911,243.316422 
	C266.509949,247.615921 266.636017,251.915421 266.762054,256.214905 
	C269.144379,254.790359 269.920868,252.936264 271.227692,252.417007 
	C275.737701,250.625031 274.792145,246.859238 273.836853,244.079407 
	C272.645905,240.613937 269.426544,240.871384 266.383911,243.316422 
M141.118149,245.368515 
	C142.615677,245.573456 144.113205,245.778381 145.610733,245.983307 
	C145.895721,245.676010 146.180725,245.368698 146.465714,245.061401 
	C145.140686,243.841843 143.980408,242.054474 142.431885,241.605133 
	C141.423035,241.312424 138.832672,242.834122 138.711914,243.770203 
	C138.277649,247.136459 138.239487,250.664368 138.853104,253.983017 
	C139.021423,254.893402 143.097092,256.202026 143.469330,255.751053 
	C144.764526,254.181839 145.452789,251.963165 145.833282,249.892471 
	C145.927811,249.378098 143.995117,248.491211 142.286819,247.269699 
	C142.547592,250.116547 142.682816,251.592880 142.818054,253.069199 
	C142.239319,253.115082 141.660583,253.160980 141.081848,253.206863 
	C141.081848,250.864700 141.081848,248.522537 141.118149,245.368515 
M176.892365,248.674927 
	C176.892365,251.097824 176.892365,253.520706 176.892365,257.314636 
	C182.077942,253.034927 178.198898,247.788971 181.475601,242.832870 
	C181.745209,248.132462 181.944092,252.041748 182.142975,255.951035 
	C183.730408,255.532227 184.649933,254.717361 184.766327,253.800537 
	C185.014526,251.845322 184.801804,249.835953 184.858765,247.851089 
	C184.950317,244.659195 184.658859,241.343246 180.581100,241.448257 
	C176.734650,241.547348 176.757065,244.840637 176.892365,248.674927 
M157.965591,252.351074 
	C158.095596,253.567490 158.225586,254.783905 158.370270,256.137817 
	C160.911926,256.003845 162.984528,255.894623 165.057129,255.785385 
	C159.656708,251.591827 159.628708,251.411270 164.061142,248.891052 
	C163.016174,247.738083 161.974014,246.588242 160.931870,245.438400 
	C162.278473,244.654266 163.625092,243.870132 164.971695,243.085999 
	C164.977798,242.736343 164.983887,242.386688 164.989975,242.037033 
	C162.794983,241.869583 160.599991,241.702148 157.965622,241.501190 
	C157.965622,245.178436 157.965622,248.290604 157.965591,252.351074 
M213.085449,241.678543 
	C212.746979,241.979965 212.079956,242.335175 212.119171,242.574783 
	C212.733490,246.327744 213.366180,250.081604 214.174408,253.796158 
	C214.376724,254.726013 215.211060,255.518356 216.326538,257.273132 
	C217.035873,251.397461 217.582092,246.872971 218.216110,241.621109 
	C217.339340,241.621109 215.622665,241.621109 213.085449,241.678543 
M359.004303,254.454819 
	C361.632751,257.312500 364.376434,256.895325 365.286072,253.442459 
	C366.185913,250.026978 365.698212,246.227951 365.619141,242.601517 
	C365.611572,242.252747 364.188080,241.934830 362.887604,241.370941 
	C362.887604,244.607742 362.616150,247.265503 362.958588,249.841660 
	C363.356995,252.838715 361.654541,253.405212 359.004303,254.454819 
M307.707245,253.730270 
	C308.580383,244.131561 308.371307,242.940826 305.113983,241.668884 
	C305.113983,245.556076 305.113983,249.281143 305.113983,252.813110 
	C303.447968,253.307343 302.295319,253.649277 300.332977,254.231415 
	C303.228912,256.375580 305.226807,257.028412 307.707245,253.730270 
M251.112381,250.417007 
	C251.468445,252.339081 251.824509,254.261154 252.180573,256.183228 
	C252.687683,256.067871 253.194794,255.952530 253.701904,255.837189 
	C253.701904,251.139709 253.701904,246.442215 253.701904,240.860947 
	C249.597214,243.457336 251.796158,246.893784 251.112381,250.417007 
z"/>
<path fill="#020200" opacity="1.000000" stroke="none" 
	d="
M403.732361,223.415207 
	C382.070068,224.584396 360.411621,225.811295 338.748352,225.902710 
	C274.298431,226.174683 209.846237,226.122650 145.395874,225.911438 
	C129.896637,225.860641 114.401009,224.702927 98.439377,223.967041 
	C98.089821,214.057053 97.103020,204.070724 98.532745,194.443237 
	C102.322578,168.923355 128.874390,151.546631 155.129333,156.249893 
	C176.453781,160.069916 196.403122,178.191025 195.179672,204.237976 
	C194.883408,210.545273 195.135635,216.878326 195.135635,223.998428 
	C203.364258,223.998428 211.441132,223.998428 219.518005,223.998428 
	C227.673660,223.998428 235.829315,223.998428 244.336441,223.998428 
	C244.336441,212.714371 244.336441,201.658096 244.336441,190.001328 
	C237.033600,190.001328 229.761917,189.850540 222.500626,190.060196 
	C218.416077,190.178131 216.668365,188.509964 216.698853,184.528214 
	C216.752411,177.531601 216.737854,170.534210 216.707047,163.537354 
	C216.690720,159.828613 218.342148,158.120285 222.174789,158.129547 
	C248.664108,158.193542 275.153809,158.207535 301.642975,158.116913 
	C305.810486,158.102646 307.314819,160.052505 307.293671,163.889603 
	C307.255981,170.719955 307.219147,177.551361 307.300323,184.380936 
	C307.351654,188.697189 305.320038,190.199783 301.109833,190.064301 
	C294.001160,189.835541 286.879791,190.001541 279.536926,190.001541 
	C279.536926,201.429840 279.536926,212.359451 279.536926,223.644485 
	C309.170746,223.644485 338.731384,223.644485 368.999786,223.644485 
	C368.999786,222.090012 368.999817,220.338776 368.999786,218.587540 
	C368.999695,200.761292 368.985657,182.935013 369.007202,165.108795 
	C369.014496,159.068512 369.924957,158.180481 375.923615,158.164795 
	C382.754211,158.146942 389.584869,158.149094 396.415466,158.164154 
	C402.436096,158.177429 403.661194,159.294785 403.707733,165.477432 
	C403.796814,177.305389 403.735382,189.134506 403.735657,200.963135 
	C403.735809,208.293396 403.734589,215.623657 403.732361,223.415207 
M151.252014,187.868271 
	C142.314163,185.489380 134.260315,189.736206 133.314072,198.494308 
	C132.415634,206.809982 133.120773,215.298920 133.120773,223.673157 
	C142.366455,223.673157 151.275116,223.673157 160.253296,223.673157 
	C160.253296,216.025314 160.395218,208.698853 160.208618,201.380768 
	C160.057877,195.468796 157.454849,190.842941 151.252014,187.868271 
z"/>
<path fill="#030200" opacity="1.000000" stroke="none" 
	d="
M97.971840,278.580566 
	C119.964073,277.413147 141.952042,276.203003 163.945374,276.096283 
	C222.741501,275.810883 281.540680,275.829559 340.337036,276.090118 
	C361.174530,276.182434 382.007385,277.322144 403.287537,278.053589 
	C403.509094,286.110413 403.765625,294.145660 402.968597,302.074951 
	C400.868958,322.962921 382.410706,339.943817 361.387756,341.133728 
	C346.249146,341.990631 332.579010,338.899811 321.744507,327.485413 
	C317.178650,322.675171 317.161530,320.745880 321.313873,315.445435 
	C324.086731,311.905884 326.836121,308.346710 329.670532,304.856842 
	C333.451477,300.201599 334.761902,300.341064 339.480713,303.773895 
	C342.622650,306.059631 346.225403,308.116333 349.935242,309.138947 
	C359.910797,311.888702 367.590485,306.669067 368.704041,296.304626 
	C369.336426,290.418854 368.818268,284.409454 368.818268,278.231995 
	C339.008209,278.231995 309.433014,278.231995 279.302094,278.231995 
	C279.302094,284.004761 279.302155,289.621643 279.302063,295.238525 
	C279.301910,307.402130 279.333557,319.565826 279.288208,331.729248 
	C279.265045,337.948975 278.663361,338.501984 272.332672,338.529877 
	C265.334564,338.560730 258.336060,338.568542 251.338058,338.527283 
	C245.332001,338.491913 244.719345,337.925964 244.703064,331.956055 
	C244.658981,315.793579 244.687546,299.630920 244.687302,283.468323 
	C244.687271,281.835815 244.687286,280.203339 244.687286,278.289429 
	C228.051712,278.289429 211.832901,278.289429 195.137512,278.289429 
	C195.137512,285.753418 195.137833,293.039490 195.137436,300.325531 
	C195.136856,310.822876 195.172455,321.320404 195.120071,331.817505 
	C195.091980,337.448761 194.056259,338.461395 188.318817,338.521332 
	C181.821182,338.589203 175.322250,338.546356 168.823914,338.535736 
	C161.312210,338.523499 160.409409,337.662933 160.387634,330.303467 
	C160.359039,320.639313 160.380112,310.975037 160.379852,301.310791 
	C160.379807,299.660553 160.379837,298.010315 160.379837,295.951599 
	C151.222733,295.951599 142.339600,295.951599 132.809723,295.951599 
	C132.809723,305.464783 132.777496,315.073853 132.816879,324.682678 
	C132.884750,341.235657 133.269867,338.291565 118.814331,338.526215 
	C114.150070,338.601929 109.483459,338.555573 104.818077,338.533051 
	C98.740265,338.503693 97.994659,337.791321 97.982239,331.526947 
	C97.947540,314.031677 97.970078,296.536285 97.971840,278.580566 
z"/>
<path fill="#171717" opacity="1.000000" stroke="none" 
	d="
M319.959900,249.016678 
	C320.147858,246.784378 319.846222,244.698654 320.685608,243.295517 
	C321.307404,242.256042 323.582275,241.390137 324.826904,241.685440 
	C329.264984,242.738373 328.062561,246.681641 327.767792,249.530899 
	C327.534943,251.781769 326.042084,253.998093 324.686798,255.934387 
	C324.482300,256.226501 321.432068,255.293503 320.682281,254.232071 
	C319.851898,253.056549 320.152039,251.082474 319.959900,249.016678 
z"/>
<path fill="#1C1C1C" opacity="1.000000" stroke="none" 
	d="
M380.883362,253.933105 
	C380.624634,255.473953 380.407593,256.576233 380.190582,257.678497 
	C379.429504,257.084534 378.668427,256.490540 377.907349,255.896561 
	C377.907349,252.474976 377.510559,248.985535 378.079102,245.661179 
	C378.352783,244.060867 380.446747,242.771881 381.716461,241.341919 
	C383.083008,242.726822 384.798676,243.920670 385.696899,245.561874 
	C386.325562,246.710556 385.970215,248.484406 385.815613,249.953918 
	C385.605255,251.953171 385.167297,253.928467 384.826935,255.914032 
	C383.757660,254.893890 382.691986,253.869675 381.592804,252.882843 
	C381.570923,252.863220 381.156403,253.280884 380.883362,253.933105 
z"/>
<path fill="#171717" opacity="1.000000" stroke="none" 
	d="
M118.128540,244.780136 
	C119.871948,243.458145 121.653229,241.742798 123.215614,241.923203 
	C124.302795,242.048721 125.655373,244.698318 125.887604,246.360306 
	C126.316628,249.430756 126.010262,252.603958 124.965981,256.306885 
	C124.018921,255.234329 123.071869,254.161789 121.886726,252.819611 
	C121.646690,253.335251 121.423080,254.146637 120.940727,254.751785 
	C120.520447,255.279083 119.808243,255.573685 119.225029,255.971100 
	C118.833534,255.368378 118.126945,254.777390 118.104004,254.160965 
	C117.992950,251.176392 118.065506,248.184982 118.128540,244.780136 
z"/>
<path fill="#202020" opacity="1.000000" stroke="none" 
	d="
M340.530945,242.818359 
	C345.641846,240.581711 347.193390,241.578094 346.534729,246.843460 
	C345.422607,245.843430 344.552490,245.061035 343.317963,243.950958 
	C343.047913,245.309509 342.817566,246.468262 342.534912,247.890289 
	C344.249146,248.036865 345.637878,248.155609 347.380341,248.304596 
	C347.380341,249.885269 347.836884,251.448029 347.273590,252.419418 
	C346.423615,253.885147 344.859680,255.900009 343.603027,255.897293 
	C342.334167,255.894531 340.178558,253.842331 339.985748,252.467255 
	C339.558014,249.416840 340.115875,246.228210 340.530945,242.818359 
z"/>
<path fill="#131313" opacity="1.000000" stroke="none" 
	d="
M238.111084,250.726105 
	C238.226761,252.760971 238.203720,254.405731 238.180664,256.050507 
	C237.612396,256.033203 237.044128,256.015869 236.475845,255.998550 
	C236.048996,254.368454 235.622147,252.738358 234.961716,250.216293 
	C233.939758,252.805435 233.249283,254.554733 232.558807,256.304016 
	C232.103195,256.153564 231.647568,256.003113 231.191956,255.852676 
	C231.191956,251.271011 231.191956,246.689331 231.191956,242.123383 
	C238.471848,241.069275 239.767090,242.670456 238.111084,250.726105 
z"/>
<path fill="#232323" opacity="1.000000" stroke="none" 
	d="
M266.433624,242.905075 
	C269.426544,240.871384 272.645905,240.613937 273.836853,244.079407 
	C274.792145,246.859238 275.737701,250.625031 271.227692,252.417007 
	C269.920868,252.936264 269.144379,254.790359 266.762054,256.214905 
	C266.636017,251.915421 266.509949,247.615921 266.433624,242.905075 
z"/>
<path fill="#1C1C1C" opacity="1.000000" stroke="none" 
	d="
M141.100006,245.774445 
	C141.081848,248.522537 141.081848,250.864700 141.081848,253.206863 
	C141.660583,253.160980 142.239319,253.115082 142.818054,253.069199 
	C142.682816,251.592880 142.547592,250.116547 142.286819,247.269699 
	C143.995117,248.491211 145.927811,249.378098 145.833282,249.892471 
	C145.452789,251.963165 144.764526,254.181839 143.469330,255.751053 
	C143.097092,256.202026 139.021423,254.893402 138.853104,253.983017 
	C138.239487,250.664368 138.277649,247.136459 138.711914,243.770203 
	C138.832672,242.834122 141.423035,241.312424 142.431885,241.605133 
	C143.980408,242.054474 145.140686,243.841843 146.465714,245.061401 
	C146.180725,245.368698 145.895721,245.676010 145.610733,245.983307 
	C144.113205,245.778381 142.615677,245.573456 141.100006,245.774445 
z"/>
<path fill="#1C1C1C" opacity="1.000000" stroke="none" 
	d="
M176.892365,248.221252 
	C176.757065,244.840637 176.734650,241.547348 180.581100,241.448257 
	C184.658859,241.343246 184.950317,244.659195 184.858765,247.851089 
	C184.801804,249.835953 185.014526,251.845322 184.766327,253.800537 
	C184.649933,254.717361 183.730408,255.532227 182.142975,255.951035 
	C181.944092,252.041748 181.745209,248.132462 181.475601,242.832870 
	C178.198898,247.788971 182.077942,253.034927 176.892365,257.314636 
	C176.892365,253.520706 176.892365,251.097824 176.892365,248.221252 
z"/>
<path fill="#131313" opacity="1.000000" stroke="none" 
	d="
M157.965607,251.876923 
	C157.965622,248.290604 157.965622,245.178436 157.965622,241.501190 
	C160.599991,241.702148 162.794983,241.869583 164.989975,242.037033 
	C164.983887,242.386688 164.977798,242.736343 164.971695,243.085999 
	C163.625092,243.870132 162.278473,244.654266 160.931870,245.438400 
	C161.974014,246.588242 163.016174,247.738083 164.061142,248.891052 
	C159.628708,251.411270 159.656708,251.591827 165.057129,255.785385 
	C162.984528,255.894623 160.911926,256.003845 158.370270,256.137817 
	C158.225586,254.783905 158.095596,253.567490 157.965607,251.876923 
z"/>
<path fill="#0F0F0F" opacity="1.000000" stroke="none" 
	d="
M213.495712,241.649826 
	C215.622665,241.621109 217.339340,241.621109 218.216110,241.621109 
	C217.582092,246.872971 217.035873,251.397461 216.326538,257.273132 
	C215.211060,255.518356 214.376724,254.726013 214.174408,253.796158 
	C213.366180,250.081604 212.733490,246.327744 212.119171,242.574783 
	C212.079956,242.335175 212.746979,241.979965 213.495712,241.649826 
z"/>
<path fill="#191919" opacity="1.000000" stroke="none" 
	d="
M359.210571,254.093781 
	C361.654541,253.405212 363.356995,252.838715 362.958588,249.841660 
	C362.616150,247.265503 362.887604,244.607742 362.887604,241.370941 
	C364.188080,241.934830 365.611572,242.252747 365.619141,242.601517 
	C365.698212,246.227951 366.185913,250.026978 365.286072,253.442459 
	C364.376434,256.895325 361.632751,257.312500 359.210571,254.093781 
z"/>
<path fill="#151515" opacity="1.000000" stroke="none" 
	d="
M307.488373,254.094574 
	C305.226807,257.028412 303.228912,256.375580 300.332977,254.231415 
	C302.295319,253.649277 303.447968,253.307343 305.113983,252.813110 
	C305.113983,249.281143 305.113983,245.556076 305.113983,241.668884 
	C308.371307,242.940826 308.580383,244.131561 307.488373,254.094574 
z"/>
<path fill="#161616" opacity="1.000000" stroke="none" 
	d="
M251.112396,249.954987 
	C251.796158,246.893784 249.597214,243.457336 253.701904,240.860947 
	C253.701904,246.442215 253.701904,251.139709 253.701904,255.837189 
	C253.194794,255.952530 252.687683,256.067871 252.180573,256.183228 
	C251.824509,254.261154 251.468445,252.339081 251.112396,249.954987 
z"/>
<path fill="#FEC706" opacity="1.000000" stroke="none" 
	d="
M151.628571,187.978226 
	C157.454849,190.842941 160.057877,195.468796 160.208618,201.380768 
	C160.395218,208.698853 160.253296,216.025314 160.253296,223.673157 
	C151.275116,223.673157 142.366455,223.673157 133.120773,223.673157 
	C133.120773,215.298920 132.415634,206.809982 133.314072,198.494308 
	C134.260315,189.736206 142.314163,185.489380 151.628571,187.978226 
z"/>
</svg>